<svg width="16" height="16" viewBox="0 0 16 16" fill="none" xmlns="http://www.w3.org/2000/svg">
<path d="M14 7V9C14 9.13261 13.9473 9.25979 13.8536 9.35355C13.7598 9.44732 13.6326 9.5 13.5 9.5H3V10.5H8.5C8.63261 10.5 8.75979 10.5527 8.85355 10.6464C8.94732 10.7402 9 10.8674 9 11V12.5C9 12.6326 8.94732 12.7598 8.85355 12.8536C8.75979 12.9473 8.63261 13 8.5 13H3V13.5C3 13.6326 2.94732 13.7598 2.85355 13.8536C2.75979 13.9473 2.63261 14 2.5 14C2.36739 14 2.24021 13.9473 2.14645 13.8536C2.05268 13.7598 2 13.6326 2 13.5V2.5C2 2.36739 2.05268 2.24021 2.14645 2.14645C2.24021 2.05268 2.36739 2 2.5 2C2.63261 2 2.75979 2.05268 2.85355 2.14645C2.94732 2.24021 3 2.36739 3 2.5V3H10.5C10.6326 3 10.7598 3.05268 10.8536 3.14645C10.9473 3.24021 11 3.36739 11 3.5V5C11 5.13261 10.9473 5.25979 10.8536 5.35355C10.7598 5.44732 10.6326 5.5 10.5 5.5H3V6.5H13.5C13.6326 6.5 13.7598 6.55268 13.8536 6.64645C13.9473 6.74021 14 6.86739 14 7Z" fill="black"/>
</svg>
