<svg width="26" height="26" viewBox="0 0 26 26" fill="none" xmlns="http://www.w3.org/2000/svg">
<path d="M25.3834 16.5446C23.5966 23.2129 16.7424 27.1702 10.074 25.3834C3.40572 23.5966 -0.55156 16.7424 1.23521 10.0741C3.02199 3.40575 9.8762 -0.55153 16.5445 1.23524C23.2128 3.02202 27.1701 9.87623 25.3834 16.5446Z" fill="#53621E"/>
<path d="M17.929 17.2353C17.1648 17.4277 16.3489 17.4179 15.5713 17.2071C14.9207 17.0277 14.309 16.7328 13.7709 16.3391C13.1477 16.814 12.7081 17.4638 12.5133 18.1982L12.0112 20.0724C11.9927 20.1421 11.9587 20.207 11.9114 20.2629C11.8641 20.3188 11.8045 20.3646 11.7363 20.3974C11.668 20.4302 11.5926 20.4494 11.5148 20.4537C11.4369 20.458 11.3582 20.4473 11.2836 20.4223C11.144 20.3728 11.0276 20.2769 10.9576 20.1539C10.8876 20.0309 10.8692 19.89 10.9062 19.7593L11.118 18.9687L9.09817 15.7969C8.66368 15.8263 8.22367 15.7847 7.79805 15.6739C7.21288 15.5186 6.67833 15.2181 6.25329 14.8057C4.96807 13.5595 4.67372 11.4051 5.4753 9.0431C5.51655 8.92084 5.60547 8.81886 5.72519 8.75651C5.8449 8.69416 5.98707 8.67579 6.1247 8.70488C8.78539 9.26591 10.6988 10.5749 11.2428 12.2049C11.457 12.844 11.4437 13.5214 11.205 14.1347C11.1876 14.1825 11.1554 14.224 11.1123 14.2541C11.0692 14.2843 11.017 14.3018 10.9621 14.3046C10.9072 14.3074 10.8519 14.2954 10.8029 14.2699C10.7539 14.2444 10.7133 14.2066 10.686 14.1611L9.69715 12.5271C9.61676 12.4076 9.49057 12.3201 9.34549 12.283C9.20041 12.2459 9.04791 12.2623 8.92052 12.3287C8.79312 12.395 8.70091 12.5061 8.66353 12.6382C8.62615 12.7703 8.64658 12.9129 8.72044 13.0357L11.515 17.5479C11.5325 17.4995 11.5506 17.4512 11.5693 17.4037C11.9431 16.4936 12.6328 15.7346 13.5335 15.2422L17.9512 12.7845C18.0808 12.7171 18.174 12.6034 18.2102 12.4686C18.2464 12.3337 18.2227 12.1887 18.1443 12.0655C18.0658 11.9422 17.9391 11.8508 17.792 11.8113C17.6449 11.7718 17.4895 11.7875 17.3599 11.855L13.0803 14.238C13.0375 14.2619 12.988 14.2745 12.937 14.2743C12.8861 14.2742 12.8355 14.2614 12.7905 14.2372C12.7456 14.2131 12.7079 14.1785 12.6814 14.137C12.6549 14.0956 12.6406 14.0488 12.6399 14.0015C12.609 12.8025 13.0502 11.7355 13.932 10.9542C15.6722 9.41244 18.8222 9.18162 22.3589 10.3363C22.4927 10.38 22.6066 10.467 22.6791 10.5808C22.7516 10.6947 22.7776 10.8275 22.7522 10.954C22.0786 14.2998 20.2769 16.6479 17.929 17.2353Z" fill="white"/>
</svg>
